<?xml version="1.0" encoding="utf-8"?>
<!DOCTYPE svg
  PUBLIC '-//W3C//DTD SVG 1.0//EN'
  'http://www.w3.org/TR/2001/REC-SVG-20010904/DTD/svg10.dtd'>
<svg width="1150" height="460" preserveAspectRatio="xMinYMin meet" viewBox="0 0 1150 460" xmlns="http://www.w3.org/2000/svg" version="1.0" fill-rule="evenodd" xmlns:xlink="http://www.w3.org/1999/xlink">
	<title>...</title>
	<desc>...</desc>
	<clipPath id="clip">
		<rect x="0" y="0" width="1150" height="460"/>
	</clipPath>
	<g id="group" transform="scale(1,-1) translate(0,-460)" style="clip-path: url(#clip)">
		<g transform="">
			<rect x="0" y="0" width="1150" height="460" style="stroke: none; stroke-linecap: butt; stroke-width: 1; fill: rgb(100%,100%,100%); fill-rule: evenodd;"/>
			<text x="35" y="425" style="font-family: Helvetica; font-size: 26px;fill: rgb(14%,20%,29%); stroke:none;" transform="translate(0,850) scale(1,-1)">Cumulative profit as bets are settled</text>
			<text x="35" y="398" style="font-family: Helvetica; font-size: 13px;fill: rgb(14%,20%,29%); stroke:none;" transform="translate(0,796) scale(1,-1)">Square-root profit weighting | Five-level $1-$5 stakes | Each split starts at $0</text>
			<text x="35" y="351" style="font-family: Helvetica; font-size: 17px;fill: rgb(0%,60%,50%); stroke:none;" transform="translate(0,702) scale(1,-1)">Test — $110.64 final net profit</text>
			<path d="M 90,146 L 1070,146 Z" style="stroke: rgb(88%,90%,92%); stroke-linecap: butt; stroke-width: 1;"/>
			<text x="60.99" y="142.0" style="font-family: Helvetica; font-size: 10px;fill: rgb(14%,20%,29%); stroke:none;" transform="translate(0,284) scale(1,-1)">$-35</text>
			<path d="M 90,188.5 L 1070,188.5 Z" style="stroke: rgb(88%,90%,92%); stroke-linecap: butt; stroke-width: 1;"/>
			<text x="69.88" y="184.5" style="font-family: Helvetica; font-size: 10px;fill: rgb(14%,20%,29%); stroke:none;" transform="translate(0,369) scale(1,-1)">$6</text>
			<path d="M 90,231 L 1070,231 Z" style="stroke: rgb(88%,90%,92%); stroke-linecap: butt; stroke-width: 1;"/>
			<text x="64.32" y="227.0" style="font-family: Helvetica; font-size: 10px;fill: rgb(14%,20%,29%); stroke:none;" transform="translate(0,454) scale(1,-1)">$48</text>
			<path d="M 90,273.5 L 1070,273.5 Z" style="stroke: rgb(88%,90%,92%); stroke-linecap: butt; stroke-width: 1;"/>
			<text x="64.32" y="269.5" style="font-family: Helvetica; font-size: 10px;fill: rgb(14%,20%,29%); stroke:none;" transform="translate(0,539) scale(1,-1)">$89</text>
			<path d="M 90,316 L 1070,316 Z" style="stroke: rgb(88%,90%,92%); stroke-linecap: butt; stroke-width: 1;"/>
			<text x="58.76" y="312.0" style="font-family: Helvetica; font-size: 10px;fill: rgb(14%,20%,29%); stroke:none;" transform="translate(0,624) scale(1,-1)">$131</text>
			<path d="M 90,181.841479 L 1070,181.841479 Z" style="stroke: rgb(50%,57%,65%); stroke-linecap: butt; stroke-width: 1;"/>
			<polyline points="90 181.8415, 115.7895 174.8694, 141.5789 163.5397, 167.3684 186.3528, 193.1579 190.4541, 218.9474 186.5784, 244.7368 193.3967, 270.5263 222.413, 296.3158 207.1359, 322.1053 198.3182, 347.8947 183.3794, 373.6842 228.1753, 399.4737 228.9443, 425.2632 248.4252, 451.0526 220.0138, 476.8421 218.9577, 502.6316 225.9298, 528.4211 224.4431, 554.2105 240.2637, 580 279.287, 605.7895 258.0118, 631.5789 248.661, 657.3684 290.7295, 683.1579 263.9586, 708.9474 272.3149, 734.7368 249.2454, 760.5263 232.6251, 786.3158 201.6095, 812.1053 186.8963, 837.8947 171.1577, 863.6842 169.1891, 889.4737 204.0395, 915.2632 210.1913, 941.0526 210.0888, 966.8421 229.785, 992.6316 240.9917, 1018.421 221.3057, 1044.211 298.4603, 1070 295.2819" style="stroke: rgb(0%,60%,50%); stroke-linecap: butt; stroke-width: 2; fill: None; fill-rule: evenodd;"/>
			<text x="100.53447368421052" y="128" style="font-family: Helvetica; font-size: 9px;fill: rgb(14%,20%,29%); stroke:none;" transform="translate(0,256) scale(1,-1)">Week 1</text>
			<text x="330.13773684210526" y="128" style="font-family: Helvetica; font-size: 9px;fill: rgb(14%,20%,29%); stroke:none;" transform="translate(0,256) scale(1,-1)">Week 10</text>
			<text x="588.0324736842106" y="128" style="font-family: Helvetica; font-size: 9px;fill: rgb(14%,20%,29%); stroke:none;" transform="translate(0,256) scale(1,-1)">Week 20</text>
			<text x="845.9272105263159" y="128" style="font-family: Helvetica; font-size: 9px;fill: rgb(14%,20%,29%); stroke:none;" transform="translate(0,256) scale(1,-1)">Week 30</text>
			<text x="1052.243" y="128" style="font-family: Helvetica; font-size: 9px;fill: rgb(14%,20%,29%); stroke:none;" transform="translate(0,256) scale(1,-1)">Week 38</text>
			<text x="529.42" y="107" style="font-family: Helvetica; font-size: 10px;fill: rgb(14%,20%,29%); stroke:none;" transform="translate(0,214) scale(1,-1)">2022-2023 matchweek</text>
			<text x="35" y="73" style="font-family: Helvetica; font-size: 10px;fill: rgb(14%,20%,29%); stroke:none;" transform="translate(0,146) scale(1,-1)">Points aggregate settled bets by matchweek; no exact-date ordering is available. Held-out test only.</text>
			<text x="35" y="51" style="font-family: Helvetica; font-size: 10px;fill: rgb(14%,20%,29%); stroke:none;" transform="translate(0,102) scale(1,-1)">Training-period profit is unavailable pending a chronological backtest.</text>
			<text x="35" y="29" style="font-family: Helvetica; font-size: 10px;fill: rgb(14%,20%,29%); stroke:none;" transform="translate(0,58) scale(1,-1)">Net profit subtracts stakes. No starting bankroll, compounding, fees or synthetic-leg cent rounding. Historical results only.</text>
		</g>
	</g>
</svg>
